<svg xmlns="http://www.w3.org/2000/svg" width="241.214" height="107.982" viewBox="0 0 241.214 107.982">
  <g id="Group_6" data-name="Group 6" transform="translate(-167.021 -135.373)">
    <g id="Group_1" data-name="Group 1" transform="translate(167.021 136.373)">
      <path id="Path_1" data-name="Path 1" d="M310.4,643.264h-.6a6.163,6.163,0,0,1-6.273-6.174,6.247,6.247,0,0,1,6.273-6.274h.6v-3.385c0-5.876,1.493-10.158,4.281-12.947s6.872-4.181,12.249-4.181a37.012,37.012,0,0,1,6.174.4,6.154,6.154,0,0,1,5.178,6.074,6.292,6.292,0,0,1-6.174,6.275h-1.294c-3.487,0-5.478,1.791-5.478,5.775v2.09h6.573a6.175,6.175,0,1,1,0,12.348h-6.373v33.461a7.568,7.568,0,1,1-15.136,0Z" transform="translate(-303.531 -604.425)" fill="#1a1818"/>
      <path id="Path_2" data-name="Path 2" d="M474.314,618.18c0-4.381,3.685-7.069,8.465-7.069s8.465,2.688,8.465,7.069v.2c0,4.382-3.686,7.171-8.465,7.171s-8.465-2.79-8.465-7.171Z" transform="translate(-432.19 -605.034)" fill="#030404"/>
      <path id="Path_3" data-name="Path 3" d="M477.951,696.6a7.568,7.568,0,1,1,15.136,0v39.434a7.568,7.568,0,1,1-15.136,0Z" transform="translate(-434.93 -663.735)" fill="#1a1818"/>
      <path id="Path_4" data-name="Path 4" d="M585.853,686.2V660.906h-.5a6.473,6.473,0,0,1,0-12.945h.5v-6.672a7.568,7.568,0,0,1,15.137,0v6.672h6.672a6.473,6.473,0,1,1,0,12.945H600.99v22.805c0,3.485,1.493,5.18,4.88,5.18.5,0,1.494-.1,1.793-.1a6.311,6.311,0,0,1,6.273,6.274,6.158,6.158,0,0,1-3.883,5.677,22.337,22.337,0,0,1-8.664,1.493C592.127,702.234,585.853,698.55,585.853,686.2Z" transform="translate(-510.968 -622.067)" fill="#1a1818"/>
      <path id="Path_5" data-name="Path 5" d="M763.8,618.18c0-4.381,3.684-7.069,8.464-7.069s8.465,2.688,8.465,7.069v.2c0,4.382-3.685,7.171-8.465,7.171s-8.464-2.79-8.464-7.171Z" transform="translate(-650.273 -605.034)" fill="#ffbb16"/>
      <path id="Path_6" data-name="Path 6" d="M767.427,696.6a7.569,7.569,0,1,1,15.138,0v39.434a7.569,7.569,0,0,1-15.138,0Z" transform="translate(-653.007 -663.735)" fill="#1a1818"/>
      <path id="Path_7" data-name="Path 7" d="M889.352,618.274a7.569,7.569,0,1,1,15.138,0v58.753a7.569,7.569,0,0,1-15.138,0Z" transform="translate(-744.859 -604.728)" fill="#1a1818"/>
      <path id="Path_8" data-name="Path 8" d="M1001.768,724.552v-.2c0-11.651,8.862-17.029,21.509-17.029a37.931,37.931,0,0,1,13.045,2.191v-.9c0-6.273-3.884-9.758-11.451-9.758a34.721,34.721,0,0,0-10.456,1.493,6.415,6.415,0,0,1-2.191.4,6.164,6.164,0,0,1-6.275-6.174,6.275,6.275,0,0,1,4.083-5.875,46.467,46.467,0,0,1,17.029-2.789c8.265,0,14.241,2.192,18.025,5.975,3.982,3.983,5.776,9.858,5.776,17.029v24.3a7.269,7.269,0,0,1-7.37,7.27c-4.382,0-7.27-3.087-7.27-6.274v-.1c-3.685,4.083-8.763,6.773-16.132,6.773C1010.032,740.884,1001.768,735.108,1001.768,724.552Zm34.754-3.486v-2.689a23.486,23.486,0,0,0-9.66-1.992c-6.472,0-10.456,2.591-10.456,7.37v.2c0,4.083,3.386,6.474,8.266,6.474C1031.742,730.428,1036.522,726.544,1036.522,721.066Z" transform="translate(-829.548 -661.386)" fill="#030404"/>
      <line id="Line_1" data-name="Line 1" x2="5.418" y2="7.456" transform="translate(169.588 15.309)" fill="none" stroke="#030404" stroke-linecap="round" stroke-miterlimit="10" stroke-width="2"/>
      <line id="Line_2" data-name="Line 2" y1="7.457" x2="5.418" transform="translate(169.588 81.168)" fill="none" stroke="#ffbb16" stroke-linecap="round" stroke-miterlimit="10" stroke-width="2"/>
      <line id="Line_3" data-name="Line 3" y1="17.92" transform="translate(196.222 88.062)" fill="none" stroke="#030404" stroke-linecap="round" stroke-miterlimit="10" stroke-width="2"/>
      <line id="Line_4" data-name="Line 4" y1="17.92" transform="translate(195.709 0)" fill="none" stroke="#ffbb16" stroke-linecap="round" stroke-miterlimit="10" stroke-width="2"/>
      <line id="Line_5" data-name="Line 5" x1="5.416" y1="7.457" transform="translate(217.439 81.168)" fill="none" stroke="#ffbb16" stroke-linecap="round" stroke-miterlimit="10" stroke-width="2"/>
      <line id="Line_6" data-name="Line 6" x1="8.766" y1="2.849" transform="translate(230.549 63.122)" fill="none" stroke="#030404" stroke-linecap="round" stroke-miterlimit="10" stroke-width="2"/>
      <line id="Line_7" data-name="Line 7" x1="8.766" y2="2.849" transform="translate(230.549 37.965)" fill="none" stroke="#ffbb16" stroke-linecap="round" stroke-miterlimit="10" stroke-width="2"/>
      <line id="Line_8" data-name="Line 8" x1="5.416" y2="7.456" transform="translate(217.439 15.309)" fill="none" stroke="#030404" stroke-linecap="round" stroke-miterlimit="10" stroke-width="2"/>
      <text id="COMMUNICATING_INSIGHTS_ENGAGING_AUDIENCES" data-name="COMMUNICATING INSIGHTS | ENGAGING AUDIENCES" transform="translate(6.17 90.323)" fill="#1a1818" font-size="5" font-family="GothamRounded-Bold, Gotham Rounded" font-weight="700"><tspan x="0" y="0">COMMUNICATING INSIGHTS | ENGAGING AUDIENCES</tspan></text>
      <text id="TM" transform="translate(233.214 15.867)" fill="#1a1818" font-size="5" font-family="Helvetica"><tspan x="0" y="0">TM</tspan></text>
    </g>
  </g>
</svg>
