<svg height="24" viewBox="0 0 31 24" width="31" xmlns="http://www.w3.org/2000/svg"><path d="m25.590768 10.61339v-2.78878h-1.99565v2.78878h-2.873738v1.991985h2.873737v2.868458h1.99565v-2.868458h2.793912v-1.991985h-2.793913zm-14.528338-.15936v3.187177s3.09757-.004143 4.35882-.004143c-.68299 2.066166-1.744997 3.19132-4.35882 3.19132-2.645196 0-4.709737-2.14043-4.709737-4.780765 0-2.640338 2.06454-4.780766 4.709737-4.780766 1.398552 0 2.301783.490666 3.130298 1.174554.66314-.661977.607795-.756318 2.295078-2.346798-1.432318-1.301321-3.33601-2.094609-5.425376-2.094609-4.452777 0-8.06243 3.603023-8.06243 8.04762 0 4.444516 3.609653 8.047618 8.06243 8.047618 6.655655 0 8.28243-5.784724 7.743125-9.641207h-7.743125z" fill-rule="evenodd"/></svg>