<svg width="22" height="16" viewBox="0 0 22 16" xmlns="http://www.w3.org/2000/svg"><g fill="none" fill-rule="evenodd"><path d="M22 3c0-1.656-1.344-3-3-3H3C1.344 0 0 1.344 0 3v10c0 1.656 1.344 3 3 3h16c1.656 0 3-1.344 3-3V3z" fill="#4859A8"/><path d="M10.973 3.562l-.68.484.25-.796-.67-.497.835-.008.265-.791.265.791.835.008-.671.497.25.796zM15.973 8.562l-.68.484.25-.796-.67-.497.835-.008.265-.791.265.791.835.008-.671.497.25.796zM6.027 8.485l-.588.42.217-.689-.58-.43.722-.007.23-.684.228.684.722.007-.58.43.217.688z" fill="#F9BC3C"/><path d="M6.027 8.562l-.68.484.251-.796-.67-.497.834-.008.265-.791.265.791.835.008-.67.497.25.796zM7.8 5.462l-.68.484.25-.796-.67-.497.835-.008.265-.791.265.791.835.008-.671.497.251.796zM7.8 11.562l-.68.484.25-.796-.67-.497.835-.008.265-.791.265.791.835.008-.671.497.251.796zM14.1 5.462l-.68.484.25-.796-.67-.497.835-.008.265-.791.265.791.835.008-.67.497.25.796zM14.1 11.562l-.68.484.25-.796-.67-.497.835-.008.265-.791.265.791.835.008-.67.497.25.796zM10.973 13.562l-.68.484.25-.796-.67-.497.835-.008.265-.791.265.791.835.008-.671.497.25.796z" fill="#F9BC3C"/></g></svg>