
<svg width="28px" height="26px" viewBox="0 0 28 26" version="1.1" xmlns="http://www.w3.org/2000/svg" xmlns:xlink="http://www.w3.org/1999/xlink">
    <g id="NDOP" stroke="none" stroke-width="1" fill="none" fill-rule="evenodd">
        <g id="Homepage_StudentStories_Mobile" transform="translate(-148.000000, -4000.000000)">
            <rect fill="none" x="0" y="0" width="320" height="4314"></rect>
            <g id="Group-4" transform="translate(-55.000000, 3272.000000)" fill="#02B3E4" fill-rule="nonzero">
                <g id="icon-/-object-/-gift" transform="translate(197.000000, 721.000000)">
                    <path d="M28.75,16.25 L18.75,16.25 L11.25,16.25 L8.75016,16.25 L8.75013091,18.75 L31.2500815,18.75 C31.2500228,17.958438 31.2499956,17.1251047 31.25,16.25 L28.75,16.25 Z M28.75,13.75 L31.2602461,13.75 C32.637086,13.75 33.75,14.870776 33.75,16.2481279 L33.75,30.0018721 C33.75,31.3769964 32.6257832,32.5 31.2602461,32.5 L8.73975389,32.5 C7.36291399,32.5 6.25,31.379224 6.25,30.0018721 L6.25,16.2481279 C6.25,14.8730036 7.37421679,13.75 8.73975389,13.75 L11.25,13.75 L11.25,12.5 C11.25,9.73857625 13.4885763,7.5 16.25,7.5 C17.7433657,7.5 19.0838194,8.15469361 20,9.19271951 C20.9161806,8.15469361 22.2566343,7.5 23.75,7.5 C26.5114237,7.5 28.75,9.73857625 28.75,12.5 L28.75,13.75 Z M18.75,30 L18.75,21.25 L8.75010182,21.25 L8.75,30 L18.75,30 Z M21.25,30 L31.2602461,30 C31.2547604,30.0002534 31.2514773,27.0835867 31.250397,21.25 L21.25,21.25 L21.25,30 Z M18.75,12.5 C18.75,11.1192881 17.6307119,10 16.25,10 C14.8692881,10 13.75,11.1192881 13.75,12.5 L13.75,13.75 L18.75,13.75 L18.75,12.5 Z M26.25,12.5 C26.25,11.1192881 25.1307119,10 23.75,10 C22.3692881,10 21.25,11.1192881 21.25,12.5 L21.25,13.75 L26.25,13.75 L26.25,12.5 Z" id="🎨-icon-color"></path>
                </g>
            </g>
        </g>
    </g>
</svg>
